 http://www.shotpix.com/images/27465843561462102436.jpg

General
Complete name                            : PSY - Gangnam Style [Music Video] 1080p [Sbyky].mp4
Format                                   : MPEG-4
Format profile                           : Base Media / Version 2
Codec ID                                 : mp42
File size                                : 175 MiB
Duration                                 : 4mn 12s
Overall bit rate mode                    : Variable
Overall bit rate                         : 5 812 Kbps
Encoded date                             : UTC 2012-07-14 07:48:50
Tagged date                              : UTC 2012-07-14 07:48:50
gsst                                     : 0
gstd                                     : 252306
gssd                                     : BADC21F82HH1357556950591981
gshh                                     :

Video
ID                                       : 1
Format                                   : AVC
Format/Info                              : Advanced Video Codec
Format profile                           : High@L4.0
Format settings, CABAC                   : Yes
Format settings, ReFrames                : 1 frame
Codec ID                                 : avc1
Codec ID/Info                            : Advanced Video Coding
Duration                                 : 4mn 12s
Bit rate                                 : 5 617 Kbps
Maximum bit rate                         : 13.6 Mbps
Width                                    : 1 920 pixels
Height                                   : 1 080 pixels
Display aspect ratio                     : 16:9
Frame rate mode                          : Constant
Frame rate                               : 23.976 fps
Color space                              : YUV
Chroma subsampling                       : 4:2:0
Bit depth                                : 8 bits
Scan type                                : Progressive
Bits/(Pixel*Frame)                       : 0.113
Stream size                              : 169 MiB (97%)
Tagged date                              : UTC 2012-07-14 07:48:51

Audio
ID                                       : 2
Format                                   : AAC
Format/Info                              : Advanced Audio Codec
Format profile                           : LC
Codec ID                                 : 40
Duration                                 : 4mn 12s
Bit rate mode                            : Variable
Bit rate                                 : 192 Kbps
Maximum bit rate                         : 201 Kbps
Channel(s)                               : 2 channels
Channel positions                        : Front: L R
Sampling rate                            : 44.1 KHz
Compression mode                         : Lossy
Stream size                              : 5.77 MiB (3%)
Title                                    : IsoMedia File Produced by Google, 5-11-2011
Encoded date                             : UTC 2012-07-14 07:48:51
Tagged date                              : UTC 2012-07-14 07:48:51

Shared By Sbyky 
http://www.shotpix.com/images/65449402944248708647.gif